# xmcd CD database file
#
# Track frame offsets:
#	150
#	23473
#	44652
#	62479
#	97260
#	128575
#	159024
#	174242
#	190483
#	212535
#	238935
#	250206
#	272830
#	286468
#	300806
#	322905
#	341233
#
# Disc length: 4793 seconds
#
# Revision: 3
# Processed by: cddbd v1.5.2PL0 Copyright (c) Steve Scherf et al.
# Submitted via: CDex 1.81
#
DISCID=e912b711
DTITLE=BestJazz100-PremiumStandards - Best Jazz 100 Premium Standards 2 -  Modern Standards
DYEAR=2000
DGENRE=Jazz
TTITLE0=Senor Blues
TTITLE1=Daahoud
TTITLE2='Round Midnight
TTITLE3=Bemsha Swing
TTITLE4=Nica's Dream
TTITLE5=Asiatic Raes
TTITLE6=DJango
TTITLE7=Bohemia After Dark
TTITLE8=Work Song
TTITLE9=Maiden Voyage
TTITLE10=Milestones
TTITLE11=Stolen Moments
TTITLE12=Airegin
TTITLE13=St.Thomas
TTITLE14=Five Spot After Dark
TTITLE15=Tune Up
TTITLE16=Waltz For Debby
EXTD=YEAR: 2000
EXTT0=
EXTT1=
EXTT2=
EXTT3=
EXTT4=
EXTT5=
EXTT6=
EXTT7=
EXTT8=
EXTT9=
EXTT10=
EXTT11=
EXTT12=
EXTT13=
EXTT14=
EXTT15=
EXTT16=
PLAYORDER=
